<svg width="1024" height="1024" viewBox="0 0 1024 1024" fill="none" xmlns="http://www.w3.org/2000/svg">
<path d="M292.37 464.094C298.887 463.684 321.193 468.035 327.958 469.447C385.349 481.432 443.011 504.695 489.655 540.545C495.802 545.27 507.94 555.46 512.005 561.62C545.84 527.16 591.145 502.395 636.805 487.321C637.4 491.452 637.87 495.599 638.22 499.756C634.865 501.63 627.715 503.89 623.73 505.345C617.955 507.49 612.245 509.8 606.6 512.27C580.095 523.89 550.39 541.75 529.31 561.78C525.665 565.245 520.81 570.035 518.245 574.27C517.575 594.47 518.115 616.785 517.935 637.23C545.75 605.41 587.25 579.675 627.25 567.025C635.455 564.43 644.3 561.18 652.875 560.14C656.265 559.73 668.27 561.02 670.755 563.09C668.775 566.8 637.965 575.075 632.64 576.68C594.175 588.26 558.405 608.145 529.795 636.515C525.915 640.365 521.98 644.67 517.83 648.215C517.65 650.9 517.59 653.83 517.485 656.54C524.505 652.17 532.37 645.835 539.595 641.02C554.635 631.02 570.545 622.395 587.125 615.24C632.82 594.335 685.745 583.76 735.585 579.695C738.185 579.48 740.795 579.385 743.405 579.36C742.99 551.86 742.865 524.355 743.02 496.854C740.75 496.642 735.625 496.46 736.445 492.782C737.575 487.688 748.17 479.519 753 484.239C754.755 488.216 754.005 500.29 753.995 505.64C757.87 504.325 765.18 502.16 769.025 504.115C772.91 506.08 772.34 511.57 772.22 515.25C771.985 522.35 771.925 529.48 771.97 536.605L772 599.13C772.02 611.93 772.1 624.78 772.015 637.575C772 639.25 771.955 642.71 770.91 643.91C769.495 645.54 767.005 646.475 764.975 646.93C753.985 649.41 742.815 651.45 731.765 653.66L672.015 665.895C632.905 674.035 591.625 683.95 552.785 691.2L552.57 691.565C539.37 712.915 484.565 712.8 471.184 691.115C457.43 687.985 442.978 685.26 429.114 682.28C394.267 674.715 359.37 667.375 324.427 660.26L280.274 651.46C273.357 650.07 258.552 647.775 253.028 644.945C250.046 639.845 250.946 628.71 250.97 622.445L251.058 590.695L250.999 538.545C250.999 532.325 249.954 507.965 253.058 504.175C257.133 502.495 264.981 504.39 269.701 505.145C271.164 486.084 263.541 480.432 287.742 485.645C288.166 479.741 286.937 473.647 288.292 468.124C288.863 465.796 290.384 465.068 292.37 464.094ZM298.981 546.38C362.657 552.97 424.779 567.98 475.694 608.66C485.131 616.2 496.959 626.39 504.67 635.74L505.05 636.205C505.495 636.745 505.3 636.525 505.95 637.11L505.975 598.04C505.975 593.485 505.995 588.78 505.985 584.25C505.97 575.88 506.555 572.26 500.095 566.19C446.475 515.76 370.502 488.2 299.071 476.315C298.986 499.299 299.502 523.58 298.981 546.38ZM741.735 589.25C730.12 590.54 718.76 590.96 706.995 592.6C655.325 599.795 603.1 614.055 557.345 639.57C550.965 643.135 533.395 654.095 529.415 659.035L529.365 659.79L530.75 659.995L531.44 659.755C536.125 658.09 542.515 654.07 547.125 651.595C555.325 647.1 563.755 643.045 572.39 639.455C617.31 621.295 664.535 609.475 712.715 604.335C721.32 603.44 734.775 602.18 743.215 602.27C743.46 599.235 744.085 591.445 742.515 589.125L741.735 589.25ZM743.615 621.71C743.54 618.495 743.655 615.17 742.88 612.085L742.26 611.51L740.805 611.735C681.695 614.545 617.275 628.425 562.925 652.425C558.805 654.245 543.385 662.31 540.615 665.055L540.58 665.755C541.825 666.095 541.8 666.055 543.105 665.99C549.285 664.58 557.29 660.015 563.505 657.55C621.605 634.51 681.495 625.655 743.615 621.71ZM494.362 660.375L494.844 659.47C493.838 657.745 487.362 653.005 485.552 651.77C434.107 616.655 372.31 599.01 310.897 592.075C302.827 591.165 287.365 590.63 280.088 588.77C279.946 593.255 279.843 597.86 279.611 602.33C343.423 602.945 416.519 620.49 473.21 650.035C477.478 652.26 490.547 660.71 494.362 660.375ZM279.514 621.96C287.967 622 296.96 622.62 305.359 623.385C357.791 628.18 410.457 637.81 459.518 657.385C462.757 658.68 480.502 666.79 482.643 666.815L482.923 665.52C480.836 663.125 476.398 660.9 473.555 659.365C429.061 635.315 377.309 622.275 327.648 615.675C321.023 614.77 314.375 614.045 307.711 613.495C304.038 613.21 282.165 611.785 280.02 611.015C279.83 614.665 279.662 618.31 279.514 621.96ZM514.82 695.365C559.05 692.555 535.76 666.89 510.295 669.215C470.839 672.575 479.66 698.2 514.82 695.365ZM762.445 636.82L762.42 557.01C762.43 543.53 762.88 528.145 762.41 514.84C761.38 514.235 761.96 514.41 760.515 514.715C758.345 515.05 756.125 515.365 753.97 515.775L753.965 593.725C753.97 601.195 754.515 624.855 753.285 630.725C714.02 636.59 674.955 643.69 636.14 652.02C605.435 658.455 577.98 664.11 548.495 674.69C550.55 677.23 550.985 677.835 552.54 680.77C554.655 680.525 561.02 678.6 563.775 677.96C573.645 675.655 583.535 673.415 593.44 671.24C631.68 662.675 670.015 654.545 708.44 646.84C719.89 644.53 731.355 642.305 742.835 640.165C748.67 639.065 756.8 637.25 762.445 636.82ZM287.859 495.518C285.697 495.102 281.831 494.475 279.86 493.841C279.436 500.15 279.64 507.72 279.652 514.115L279.783 553.165C279.813 561.535 280.057 571.08 279.465 579.34C343.638 581.325 406.487 598.095 463.116 628.35C475.38 634.905 487.133 642.95 498.313 651.18C500.885 653.07 503.17 655.105 506.195 656.185L506.145 648.885C501.51 644.58 497.526 639.765 493.075 635.31C441.91 584.105 368.517 565.05 298.495 558.475C290.326 557.705 288.153 557.065 287.967 548.48C287.586 530.9 288.404 513.07 287.859 495.518ZM270.005 630.785C269.965 617.125 271.091 521.27 269.249 516.145C267.017 514.735 263.762 514.665 261.087 514.425L261.037 592.425C261.04 606.695 260.693 622.54 261.086 636.695C278.143 638.745 299.453 643.86 316.785 647.225C353.111 654.315 389.362 661.79 425.53 669.65C431.392 670.915 470.236 679.9 471.692 679.35L472.677 677.83C473.747 675.83 474.475 675.445 474.045 673.835C467.448 670.025 441.732 663.86 433.418 661.895C396.226 653.095 358.771 645.435 321.108 638.935C310.617 637.045 300.1 635.305 289.558 633.715C283.862 632.87 275.422 631.97 270.005 630.785Z" fill="white"/>
<path d="M688.385 434.068C697.605 433.567 697.535 441.205 700.905 442.975C705.365 441.077 708.175 441.332 712.785 442.516L713.485 442.701C718.355 447.544 718.285 450.357 717.68 456.848C722.36 457.989 724.435 458.777 728.44 461.362C732.36 468.894 731.185 471.368 725.355 476.878C730.395 482.091 733.57 489.725 725.71 493.656C724.71 494.156 719.185 497.09 719.005 497.549C717.17 502.215 717.955 509.52 711.98 511.535C708.875 512.5 703.815 510.97 700.48 509.24L697.505 514.91L690.035 518.735C689.965 526.16 689.76 533.585 689.415 541C698.52 526.345 711.06 518.18 728.82 523.14C726.04 541.78 714.12 555.515 694.755 554.385C690.605 554.145 691.765 568.27 689.565 572.185C687.945 573.04 688.79 572.87 686.94 572.685C684.395 571.25 683.945 569.115 683.035 566.395C678.2 551.29 675.395 557.09 662.7 554.43C653.305 552.465 644.345 544.64 639.605 536.52C637.2 532.395 630.5 520.965 634.13 516.55C637.56 514.69 649.805 516.065 653.76 517.11C668.33 520.955 675.46 528.365 682.875 540.745C683.195 532.855 683.09 525.04 683.03 517.15L678.465 510.16C670.675 513.69 666.315 512.03 661.545 505.19C660.94 502.45 661.03 499.686 661.005 496.879C648.695 495.095 644.84 485.168 654.08 476.326C643.62 466.849 650.625 460.613 660.965 456.818C659.145 443.564 666.225 439.176 678.055 443.952C680.295 437.846 682.29 436.034 688.385 434.068ZM689.75 488.807C693.525 488.153 695.9 487.303 698.23 484.002C700.225 481.124 700.95 477.554 700.235 474.125C699.07 468.6 694.975 465.306 689.49 464.61C673.595 467.209 674.695 487.937 689.75 488.807ZM675.415 543.7C669.32 535.09 660.19 526.33 649.32 524.66C647.655 524.415 645.97 524.345 644.295 524.45C649.35 532.94 655.005 541.77 664.41 546.125C666.55 547.115 671.06 548.59 673.4 548.035L673.48 547.39C668.585 542.605 663.385 537.76 658.685 532.825C657.095 531.255 655.605 529.805 653.94 528.305C658.88 531.01 663.585 534.12 668.015 537.605C670.5 539.575 672.9 541.91 675.415 543.7ZM698.88 547.83C703.51 546.63 706.56 545.16 709.9 541.585C712.445 538.855 716.555 534.2 716.905 530.45C715.995 529.65 715.92 529.975 714.24 530.075C704.87 532.945 699.505 539.96 694.55 548.21C696.145 548.48 697.215 548.11 698.88 547.83ZM665.17 489.278C668.025 487.646 671.28 486.477 670.04 482.618C667.41 480.122 665.465 480.465 661.95 480.61C652.975 483.687 657.635 491.532 665.17 489.278ZM704.33 461.574C707.43 459.54 712.12 455.851 710.4 451.592C708.875 449.994 707.385 449.444 705.15 449.413C701.75 452.21 698.035 457.226 700.76 461.672C701.965 462.143 703.155 462.256 704.33 461.574ZM690.38 456.179C694.65 451.708 696.835 443.387 688.56 442.297C682.96 446.52 683.495 455.088 690.38 456.179ZM716.92 473.025C720.02 471.612 722.665 470.947 721.955 466.945C720.14 464.476 717.375 464.159 714.465 464.413C711.675 466.206 708.495 467.697 709.475 471.642C711.52 474.107 714.095 473.668 716.92 473.025ZM675.58 491.91C669.47 495.093 665.495 499.617 672.73 504.72C676.105 502.31 680.3 498.34 678.66 493.799C677.335 492.436 677.295 492.524 675.58 491.91ZM661.275 463.958C659.43 464.725 658.345 464.911 657.37 466.614C656.91 471.285 662.955 472.999 666.7 473.327C668.705 472.668 668.73 472.785 670.08 471.259C671.025 466.663 664.88 464.496 661.275 463.958ZM701.205 491.82C697.73 497.474 703.015 504.635 708.725 503.805C713.175 497.749 706.81 492.135 701.205 491.82ZM687.66 497.8C684.3 502.89 682.845 510.255 691.345 510.05C696.17 505.195 694.78 498.639 687.66 497.8ZM712.805 480.605C710.305 481.274 710.82 480.781 709.14 482.379C708.15 486.676 714.38 490.279 717.955 490.005C720.03 488.719 720.34 488.629 721.835 486.778C722.61 483.451 720.71 482.689 718.08 481.096L712.805 480.605ZM670.32 449.342C664.515 454.197 671.345 460.446 676.185 462.224C682.725 457.187 676.425 450.547 670.32 449.342Z" fill="white"/>
<path d="M505.455 346.783C506.49 346.71 507.525 346.648 508.56 346.595C541.655 344.936 574.015 357.99 598.32 380.179C619.485 399.686 632.975 426.123 636.345 454.71C637.15 461.05 637.21 469.113 637.505 475.749C634.145 477.664 627.615 480.36 624.035 481.754C624.22 480.323 624.375 478.887 624.485 477.449C629.15 417.074 581.95 364.542 522.125 359.97C517.86 359.909 513.595 359.885 509.33 359.899C479.827 360.272 449.554 374.032 429.154 395.187C411.965 413.099 401.683 436.525 400.136 461.302C399.732 466.943 399.961 473.638 400.056 479.353C393.937 478.405 386.768 477.403 386.985 469.67C387.17 463.098 387.823 455.722 388.767 449.231C396.964 392.875 449.044 349.548 505.455 346.783Z" fill="white"/>
<path d="M509.965 273.026C513.995 272.975 517.75 273.804 517.845 278.781C518.145 294.607 518.415 310.664 517.69 326.463C517.595 328.498 515.515 329.983 514.05 330.993C513.12 331.065 512.17 331.15 511.245 331.1C509.475 331.003 507.93 330.253 506.88 328.798C505.52 326.921 505.27 282.195 506.135 277.546C506.58 275.152 508.09 274.331 509.965 273.026Z" fill="white"/>
<path d="M624.66 306.963C634.51 308.407 629.465 317.878 625.7 322.582C620.56 329.004 607.88 353.83 601.76 357.186C588.17 356.595 596.03 346.627 600.195 340.245C606.975 329.863 613.39 319.004 620.79 309.064C621.46 308.165 623.605 307.363 624.66 306.963Z" fill="white"/>
<path d="M398.048 307.488C399.954 307.515 401.94 307.65 403.191 309.385C412.288 322.005 420.543 335.458 429.142 348.437C431.699 352.297 428.72 355.372 425.218 357.071C424.043 357.068 422.669 357.143 421.556 356.726C418.328 355.518 396.3 320.359 393.787 315.122C393.113 313.715 392.862 312.633 393.538 311.144C394.433 309.175 396.177 308.323 398.048 307.488Z" fill="white"/>
<path d="M689.925 400.008C697.355 400.627 698.445 408.781 691.26 411.917C679.135 417.207 666.095 422.706 653.59 426.962C652.675 426.972 651 427.06 650.215 426.731C647.06 425.406 646.48 420.835 647.655 418.154C651.25 414.527 683.37 402.202 689.925 400.008Z" fill="white"/>
<path d="M333.472 399.872C344.427 402.458 365.001 412.295 375.55 417.381C379.679 419.372 376.171 425.015 372.41 427.225C363.411 426.121 338.725 414.654 329.824 409.906C326.114 407.927 330.093 401.924 333.472 399.872Z" fill="white"/>
<path d="M732.76 542.86C734.095 544.375 734.61 548.63 734.585 550.7C734.48 560.995 720.64 558.51 714.615 557.735C713.405 557.7 713.32 557.65 712.135 557.33C712.16 556.005 714.01 555.43 715.245 555.01C723.335 552.25 726.94 548.915 732.76 542.86Z" fill="white"/>
</svg>
