<svg viewBox="113 23 130 151" fill="none" xmlns="http://www.w3.org/2000/svg">
<path d="M151.759 29.5539C151.831 29.5259 151.904 29.4983 151.977 29.4712C153.266 28.9915 154.742 28.5793 156.017 28.1202C165.27 24.789 167.013 23.8661 176.129 28.0379C181.492 30.4306 194.048 34.8074 200.144 37.2635C200.436 37.381 201.142 36.4482 202.993 36.7884C203.387 37.1609 204.295 38.2415 204.532 38.3894C207.103 40 216.543 41.9751 217.862 44.4606L217.876 44.9924C216.148 46.5385 207.313 48.4884 205.244 49.7482C205.425 50.8196 205.672 52.0807 205.774 53.1469C208.016 54.5557 208.001 55.071 207.773 57.6184C207.806 60.2228 210.779 67.1049 210.831 69.3427L210.863 69.5029C212.592 73.0409 213.269 76.7065 208.172 77.0287C208.212 78.3666 208.368 81.8749 208.086 83.0721C207.791 85.9546 205.94 89.5172 203.542 91.2114L202.835 90.8327C202.926 90.3484 203.087 90.1137 203.32 89.681C201.571 89.686 200.742 89.6856 199.036 89.9173C198.794 93.0323 198.267 94.1516 195.738 96.3627C195.476 96.5918 195.189 96.8731 194.865 96.973C192.943 98.6953 190.923 99.7291 188.519 100.675L187.555 101.122L187.474 101.385L186.064 101.565C184.791 101.908 183.509 102.219 182.219 102.497C180.941 102.773 177.044 103.294 175.718 103.242C173.99 103.567 172.548 103.688 170.78 103.611C163.063 103.722 150.149 103.516 143.103 100.531L142.728 100.622C142.589 100.587 142.416 100.548 142.288 100.484C138.156 98.41 135.09 96.6758 133.387 92.283C130.257 91.2836 128.79 91.8506 126.916 88.643C125.633 87.1779 124.927 85.6225 124.559 83.7264C123.972 81.4556 123.746 78.9741 124.221 76.663C124.793 75.5187 124.876 74.2849 125.417 73.0803C125.822 72.449 126.101 71.8188 126.797 71.6188C127.416 71.9045 127.487 72.1086 127.765 72.8541C127.856 73.1013 127.943 73.3498 128.026 73.5996C129.232 72.6717 127.979 70.2236 127.629 68.8864C128.683 68.0604 129.174 67.8688 130.367 67.3322C132.182 66.1002 132.741 65.0681 133.338 62.9813C133.437 61.541 134.275 59.3682 134.764 57.929L135.076 57.9432L135.417 58.349C136.077 58.2329 138.539 56.3625 139.346 55.8292C139.881 55.5914 140.802 55.0474 141.347 54.7464L140.713 53.9198L141.675 53.458C141.044 51.1891 141.854 48.1732 140.347 46.7883L139.431 48.5547C138.952 48.0656 138.903 46.8937 138.754 46.1045C138.808 48.7109 138.22 49.8315 136.933 52.0729C136.074 51.9029 134.912 51.6336 134.063 51.596C130.5 50.6801 115.39 46.3646 113.469 44.2768C113.006 42.1869 119.272 40.4592 120.944 40.1567L121.119 40.0355C131.293 36.4276 141.507 32.9335 151.759 29.5539ZM197.372 58.4612C198.163 61.0941 199.19 64.539 200.449 66.9179C201.137 67.6601 202.06 67.9349 203.007 68.3227C203.057 66.2339 203.396 61.5824 203.874 59.6545C203.523 59.1814 202.898 57.8247 202.513 57.1553C202.238 56.2652 202.471 55.5866 202.782 54.7453C203.406 53.0579 203.347 51.6916 203.286 49.9208C200.361 50.7617 197.777 51.6021 194.898 52.5088C195.937 54.5953 196.561 56.289 197.372 58.4612Z" fill="#0D0E17"/>
<path d="M151.759 29.5539C151.831 29.5259 151.904 29.4983 151.977 29.4712C153.266 28.9915 154.742 28.5793 156.017 28.1202C165.27 24.789 167.013 23.8661 176.129 28.0379C181.492 30.4306 194.048 34.8074 200.144 37.2635C200.436 37.381 201.142 36.4482 202.993 36.7884C203.387 37.1609 204.295 38.2415 204.532 38.3894C207.103 40 216.543 41.9751 217.862 44.4606L217.876 44.9924C216.148 46.5385 207.313 48.4884 205.244 49.7482C205.425 50.8196 205.672 52.0807 205.774 53.1469C208.016 54.5557 208.001 55.071 207.773 57.6184L207.607 57.6118L207.503 57.9874C207.058 57.9754 206.332 57.2874 205.674 57.0365L203.591 56.4492L203.289 55.8618C202.944 56.3398 202.72 56.5953 202.513 57.1553C202.238 56.2652 202.471 55.5866 202.782 54.7453C203.406 53.0579 203.347 51.6916 203.286 49.9208C200.361 50.7617 197.777 51.6021 194.898 52.5088C195.937 54.5953 196.561 56.289 197.372 58.4612L197.016 58.368C196.55 57.3019 196.007 56.7329 195.076 56.0839C194.724 55.9285 192.403 54.4655 191.887 54.1643C191.771 54.4585 191.653 54.8352 191.459 55.0713L189.28 54.1464C188.632 53.8323 185.382 53.0472 184.495 52.8175C182.85 52.6541 177.485 52.7112 175.916 52.9903L175.186 53.2049C174.811 53.8471 174.384 54.4553 174.274 55.1824L173.97 55.6634L174.097 56.1532C173.104 56.4872 167.798 58.5516 167.308 58.6391C166.969 58.6109 164.557 57.5644 164.132 57.3762C160.801 55.8999 157.935 55.3545 154.274 55.3629L153.897 55.1087C152.883 55.178 150.587 55.2719 149.718 55.5547C146.94 55.3745 141.286 57.0735 139.041 58.7872L138.414 59.2638C135.246 61.9286 134.338 63.0257 132.227 66.6364L131.983 67.4346C131.453 67.6717 130.945 67.4114 130.367 67.3322C132.182 66.1002 132.741 65.0681 133.338 62.9813C133.437 61.541 134.275 59.3682 134.764 57.929L135.076 57.9432L135.417 58.349C136.077 58.2329 138.539 56.3625 139.346 55.8292C139.881 55.5914 140.802 55.0474 141.347 54.7464L140.713 53.9198L141.675 53.458C141.044 51.1891 141.854 48.1732 140.347 46.7883L139.431 48.5547C138.952 48.0656 138.903 46.8937 138.754 46.1045C138.808 48.7109 138.22 49.8315 136.933 52.0729C136.074 51.9029 134.912 51.6336 134.063 51.596C130.5 50.6801 115.39 46.3646 113.469 44.2768C113.006 42.1869 119.272 40.4592 120.944 40.1567L121.119 40.0355C131.293 36.4276 141.507 32.9335 151.759 29.5539Z" fill="#191C34"/>
<path d="M166.206 37.7771C166.139 39.6846 166.464 41.3248 166.494 43.2259C165.921 43.4342 164.364 43.9537 163.926 44.2451C164.46 44.3488 164.926 44.0329 165.197 44.7979C166.076 47.2796 163.756 50.3937 162.293 52.0024C161.789 52.1711 161.59 52.1914 161.06 52.266C162.224 52.6195 166.686 54.1849 167.373 54.331L167.765 54.4332C168.452 53.4276 171.106 52.8975 172.381 52.5136L172.559 52.5324L172.973 53.7404C173.578 53.6419 174.559 53.3633 175.186 53.2049C174.811 53.8471 174.384 54.4553 174.274 55.1824L173.97 55.6634L174.097 56.1532C173.104 56.4872 167.798 58.5516 167.308 58.6391C166.969 58.6108 164.557 57.5643 164.132 57.3762C160.801 55.8999 157.935 55.3545 154.274 55.3628L153.897 55.1087C152.883 55.178 150.587 55.2718 149.718 55.5547C146.94 55.3744 141.286 57.0735 139.041 58.7872L138.414 59.2638C135.246 61.9286 134.338 63.0257 132.227 66.6363L131.983 67.4346C131.453 67.6717 130.945 67.4114 130.367 67.3322C132.182 66.1002 132.741 65.0681 133.338 62.9813C133.437 61.541 134.276 59.3682 134.764 57.929L135.076 57.9432L135.417 58.349C136.077 58.2328 138.539 56.3625 139.346 55.8292C139.881 55.5914 140.802 55.0474 141.348 54.7464L140.713 53.9198L141.675 53.458C141.044 51.1891 141.854 48.1732 140.347 46.7883C140.389 46.3016 141.404 44.8775 141.705 44.6087C146.79 40.0595 159.823 38.0693 166.206 37.7771Z" fill="#101833"/>
<path d="M141.675 53.4579C146.3 51.462 156.448 50.9803 160.868 52.2716L161.06 52.2659C162.224 52.6194 166.686 54.1848 167.373 54.3309L167.765 54.4331C168.452 53.4275 171.106 52.8974 172.381 52.5135L172.559 52.5323L172.973 53.7403C173.578 53.6418 174.559 53.3632 175.186 53.2048C174.811 53.847 174.384 54.4552 174.274 55.1823L173.97 55.6633L174.097 56.1531C173.104 56.4871 167.798 58.5515 167.308 58.639C166.969 58.6107 164.557 57.5642 164.132 57.3761C160.801 55.8998 157.935 55.3544 154.274 55.3627L153.897 55.1086C152.883 55.1779 150.587 55.2717 149.718 55.5546C146.94 55.3743 141.286 57.0734 139.041 58.7871L138.414 59.2637C135.246 61.9285 134.338 63.0256 132.227 66.6362L131.983 67.4345C131.453 67.6716 130.945 67.4113 130.367 67.3321C132.182 66.1001 132.741 65.068 133.338 62.9812C133.437 61.5409 134.276 59.3681 134.764 57.9289L135.076 57.9431L135.417 58.3489C136.077 58.2328 138.539 56.3624 139.346 55.8291C139.881 55.5913 140.802 55.0473 141.348 54.7463L140.713 53.9197L141.675 53.4579Z" fill="#272A36"/>
<path d="M140.258 57.0107C140.703 56.8722 143.36 55.6054 143.843 55.3567C147.762 53.337 151.072 53.4647 155.314 54.467C153.741 54.4504 148.771 54.1131 147.833 55.1158C149.333 55.0511 153.524 54.6322 154.806 54.9586L153.897 55.1086C152.883 55.178 150.587 55.2718 149.718 55.5547C146.94 55.3744 141.286 57.0734 139.041 58.7871L138.414 59.2638C135.246 61.9286 134.338 63.0256 132.227 66.6363L131.983 67.4345C131.453 67.6717 130.945 67.4113 130.367 67.3321C132.182 66.1001 132.741 65.0681 133.338 62.9812C133.437 61.541 134.276 59.3681 134.764 57.929L135.076 57.9432L135.417 58.349C136.077 58.2328 138.539 56.3625 139.346 55.8292C139.989 56.3078 140.208 56.2267 140.258 57.0107Z" fill="#0D0E17"/>
<path d="M135.076 57.9431L135.417 58.3489C136.077 58.2327 138.539 56.3624 139.346 55.8291C139.989 56.3077 140.208 56.2266 140.258 57.0106C137.358 58.7439 135.57 60.4145 133.338 62.9811C133.437 61.5409 134.276 59.368 134.764 57.9289L135.076 57.9431Z" fill="#2F4A82"/>
<path d="M172.381 52.5137L172.559 52.5325L172.973 53.7404C173.578 53.642 174.559 53.3633 175.186 53.2049C174.811 53.8472 174.384 54.4553 174.274 55.1824L173.97 55.6635L174.097 56.1532C173.104 56.4873 167.798 58.5516 167.308 58.6391C168.332 57.6134 170.329 57.0761 171.712 56.6612L171.843 56.4116C170.789 55.8732 170.595 55.9811 170.249 55.0897C169.109 55.4395 168.346 55.7709 167.135 55.5385L167.373 54.331L167.765 54.4332C168.452 53.4276 171.106 52.8976 172.381 52.5137Z" fill="#4C4B69"/>
<path d="M172.381 52.5137L172.559 52.5325L172.973 53.7404C171.707 54.0648 169.237 54.9267 168.23 55.0573C167.764 54.781 167.922 54.9764 167.765 54.4332C168.452 53.4276 171.106 52.8976 172.381 52.5137Z" fill="#F4DB6B"/>
<path d="M141.675 53.4579C146.3 51.462 156.449 50.9803 160.868 52.2716C159.927 52.3416 159.598 52.1471 158.98 52.8974L158.826 52.9016C157.405 52.9292 155.512 52.5367 154.019 52.4873C148.932 52.3186 145.962 53.0379 141.348 54.7463L140.713 53.9197L141.675 53.4579Z" fill="#BD8138"/>
<path d="M160.868 52.2716L161.06 52.2659C162.224 52.6194 166.685 54.1847 167.373 54.3309L167.135 55.5384C166.488 55.4218 160.763 53.3482 158.98 52.8974C159.598 52.1471 159.927 52.3416 160.868 52.2716Z" fill="#EECC5E"/>
<path d="M166.206 37.777C166.881 37.7895 167.468 37.6812 167.967 37.9883C167.339 39.3225 166.512 40.6584 167.789 41.9479L168.515 41.7265L168.805 42.0402C171.03 41.8998 173.77 41.251 175.952 41.765C180.472 41.7788 191.662 46.9275 193.856 51.4635C194.574 52.9281 195.858 54.5652 195.076 56.0838C194.724 55.9285 192.403 54.4655 191.887 54.1642C191.771 54.4585 191.653 54.8351 191.459 55.0712L189.28 54.1463C188.632 53.8322 185.383 53.0471 184.496 52.8174C182.851 52.654 177.485 52.7111 175.916 52.9902L175.186 53.2048C174.559 53.3632 173.578 53.6419 172.973 53.7403L172.559 52.5324L172.381 52.5135C171.106 52.8975 168.452 53.4275 167.765 54.4331L167.373 54.3309C166.686 54.1848 162.224 52.6194 161.06 52.2659C161.59 52.1913 161.789 52.171 162.293 52.0023C163.756 50.3936 166.076 47.2795 165.197 44.7978C164.926 44.0328 164.46 44.3487 163.926 44.245C164.364 43.9536 165.921 43.4341 166.494 43.2259C166.464 41.3247 166.139 39.6845 166.206 37.777Z" fill="#4C4B69"/>
<path d="M166.206 37.777C166.881 37.7895 167.468 37.6812 167.967 37.9883C167.339 39.3225 166.512 40.6584 167.789 41.9479L168.515 41.7265L168.805 42.0402C171.03 41.8998 173.77 41.251 175.952 41.765C173.363 41.9639 170.825 42.3883 168.326 42.5764C168.312 44.4968 168.052 51.7591 168.717 53.0132C169.486 53.2422 171.269 51.8197 172.381 52.5135C171.106 52.8975 168.452 53.4275 167.765 54.4331L167.373 54.3309C166.686 54.1848 162.224 52.6194 161.06 52.2659C161.59 52.1913 161.789 52.171 162.293 52.0023C163.756 50.3936 166.076 47.2795 165.197 44.7978C164.926 44.0328 164.46 44.3487 163.926 44.245C164.364 43.9536 165.921 43.4341 166.494 43.2259C166.464 41.3247 166.139 39.6845 166.206 37.777Z" fill="#191C34"/>
<path d="M166.206 37.777C166.881 37.7895 167.468 37.6812 167.967 37.9883C167.339 39.3225 166.512 40.6584 167.789 41.9479L168.515 41.7265L168.805 42.0402C168.555 42.1658 167.993 42.3585 167.949 42.5243C167.429 44.5084 168.593 51.072 167.789 52.636L167.326 52.8738L166.965 52.6934C166.874 52.4149 166.478 43.9114 166.494 43.2259C166.464 41.3247 166.139 39.6845 166.206 37.777Z" fill="#0D142A"/>
<path d="M176.012 51.9021C179.045 51.3985 180.912 51.3819 184.013 51.7743L184.496 52.8173C182.851 52.6539 177.485 52.711 175.916 52.9901L176.012 51.9021Z" fill="#EECC5E"/>
<path d="M184.013 51.7744C187.379 52.2305 188.857 52.5906 191.887 54.1643C191.771 54.4585 191.653 54.8352 191.459 55.0712L189.28 54.1463C188.632 53.8322 185.383 53.0471 184.495 52.8174L184.013 51.7744Z" fill="#F4DB6B"/>
<path d="M172.559 52.5323C173.573 52.2114 174.937 52.0596 176.012 51.9021L175.916 52.9902L175.186 53.2048C174.559 53.3631 173.578 53.6418 172.973 53.7403L172.559 52.5323Z" fill="#F4DB6B"/>
<path d="M138.754 46.1044C138.801 45.0813 140.608 43.2169 141.311 42.6022C147.879 36.8579 163.471 35.5534 171.825 36.0434C177.277 36.363 188.664 39.5214 192.474 43.916C193.216 44.772 194.383 49.53 194.297 50.8863C194.276 51.2216 194.158 51.2096 193.856 51.4636C191.662 46.9276 180.472 41.7788 175.952 41.7651C173.77 41.251 171.03 41.8998 168.805 42.0403L168.515 41.7266L167.789 41.9479C166.512 40.6584 167.339 39.3225 167.967 37.9883C167.468 37.6812 166.881 37.7895 166.206 37.777C159.823 38.0693 146.79 40.0595 141.705 44.6086C141.404 44.8774 140.389 46.3015 140.347 46.7882L139.431 48.5546C138.952 48.0655 138.903 46.8937 138.754 46.1044Z" fill="#080A16"/>
<path d="M202.993 36.7883C203.387 37.1609 204.295 38.2415 204.532 38.3894C207.103 40 216.543 41.9751 217.862 44.4605L217.876 44.9923C216.148 46.5385 207.313 48.4884 205.244 49.7482L205.055 50.2651C204.324 47.9514 204.312 42.6176 203.789 39.5822C205.176 40.3231 215.816 44.3805 216.801 44.2066C216.164 42.625 205.943 39.5297 203.854 38.7523C203.436 37.9639 203.283 37.6303 202.993 36.7883Z" fill="#3B333A"/>
<path d="M167.658 25.7874C169.51 25.1966 173.415 27.9972 176.129 28.0379C181.492 30.4306 194.048 34.8073 200.144 37.2635C200.436 37.3809 201.142 36.4482 202.993 36.7883C203.283 37.6303 203.436 37.9639 203.854 38.7523C205.943 39.5297 216.164 42.625 216.801 44.2066C215.816 44.3805 205.176 40.3231 203.789 39.5822C204.312 42.6176 204.324 47.9514 205.055 50.2651C205.27 51.5684 205.628 52.4777 204.615 53.5262L204.24 53.4849C202.858 51.4485 203.864 39.5463 201.634 37.7528C201.552 38.2468 201.52 38.3329 201.307 38.7866L200.778 38.8783C195.947 36.852 169.211 27.4849 167.658 25.7874Z" fill="#EECC5E"/>
<path d="M151.759 29.5539C151.831 29.5259 151.904 29.4983 151.977 29.4712C153.266 28.9915 154.742 28.5793 156.017 28.1202C165.27 24.789 167.013 23.8661 176.129 28.0379C173.415 27.9972 169.51 25.1966 167.658 25.7874C167.113 26.3076 159.358 28.7353 158.605 28.7412C146.813 32.6732 135.049 36.6873 123.313 40.7832C123.313 40.7832 123.011 40.5005 123.038 40.5353C122.653 40.0471 121.784 40.0746 121.119 40.0355C131.293 36.4276 141.507 32.9335 151.759 29.5539Z" fill="#2F4A82"/>
<path d="M151.759 29.5539C151.831 29.5259 151.904 29.4983 151.977 29.4712C153.266 28.9915 154.742 28.5793 156.017 28.1202C165.27 24.789 167.013 23.8661 176.129 28.0379C173.415 27.9972 169.51 25.1966 167.658 25.7874C167.113 26.3076 159.358 28.7353 158.605 28.7412C159.028 27.9931 162.231 27.5875 163.565 26.4973C161.212 27.2681 153.877 29.9496 151.759 29.5539Z" fill="#1C3368"/>
<path d="M204.451 54.1388C205.283 53.9599 205.715 53.7987 206.523 54.0618C207.618 54.8086 207.433 56.3898 207.607 57.6117L207.503 57.9873C207.059 57.9752 206.332 57.2873 205.674 57.0364L203.592 56.449L203.289 55.8617C203.688 55.1514 203.958 54.7883 204.451 54.1388Z" fill="#E2BC50"/>
<path d="M203.289 55.8618C203.688 55.1515 203.958 54.7884 204.451 54.1389C205.469 55.3641 205.61 55.4602 205.674 57.0365L203.592 56.4491L203.289 55.8618Z" fill="#BD8138"/>
<path d="M121.119 40.0354C121.784 40.0746 122.653 40.047 123.038 40.5352C123.011 40.5005 123.313 40.7831 123.313 40.7831C121.182 41.1029 115.378 43.9615 114.114 44.0237L114.029 43.6949C114.776 41.8202 118.493 41.5586 120.764 40.2616L120.944 40.1566L121.119 40.0354Z" fill="#4376BF"/>
<path d="M175.916 52.9901C177.485 52.711 182.85 52.6539 184.495 52.8173C185.382 53.047 188.632 53.8321 189.28 54.1462L191.459 55.0711C191.653 54.8351 191.771 54.4584 191.887 54.1642C192.403 54.4654 194.724 55.9284 195.076 56.0837C196.007 56.7327 196.55 57.3017 197.016 58.3679L197.372 58.4611C198.163 61.0939 199.19 64.5388 200.449 66.9177C201.137 67.6599 202.06 67.9347 203.007 68.3225C203.057 66.2337 203.396 61.5822 203.874 59.6543C203.523 59.1812 202.898 57.8245 202.513 57.1551C202.72 56.5951 202.944 56.3396 203.289 55.8616L203.591 56.449L205.674 57.0363C206.332 57.2872 207.058 57.9752 207.503 57.9872L207.607 57.6117L207.773 57.6182C207.806 60.2227 210.779 67.1047 210.831 69.3426L210.863 69.5027C212.592 73.0407 213.269 76.7063 208.172 77.0286C208.212 78.3664 208.368 81.8747 208.086 83.072C207.791 85.9544 205.94 89.517 203.542 91.2112L202.835 90.8326C202.926 90.3482 203.087 90.1135 203.32 89.6808C201.571 89.6859 200.742 89.6854 199.036 89.9171C198.794 93.0321 198.267 94.1514 195.738 96.3626C195.476 96.5916 195.189 96.8729 194.865 96.9729C192.943 98.6951 190.923 99.7289 188.519 100.675L187.555 101.121L187.474 101.385L186.064 101.565C184.791 101.908 183.509 102.219 182.219 102.497C180.941 102.773 177.044 103.294 175.718 103.242C174.633 102.519 174.1 102.906 172.529 102.652C173.636 101.683 174.739 100.667 175.769 99.6138C176.243 99.1291 176.125 98.7944 176.744 98.4908C176.777 98.2491 176.643 96.802 176.617 96.4693L175.455 96.1913C173.412 96.907 172.992 96.8119 170.794 97.0785L168.368 97.1011C169.349 96.1952 170.895 96.809 172.459 95.6133C178.67 94.7589 184.126 94.5832 189.274 90.7387C194.576 87.0578 195.016 81.0317 194.557 75.2092C192.346 66.2448 186.088 63.7122 177.723 62.1562C177.266 62.1337 176.191 61.9186 175.689 61.832C174.336 61.7469 173.143 61.6679 171.795 61.4938C164.352 61.4164 155.97 61.4743 149.034 64.4631C147.828 65.099 146.507 65.7642 145.331 66.4336L145.199 66.2383L145.335 65.9165C144.695 65.7135 144.014 66.076 143.276 66.3102C143.675 65.9937 143.886 65.8382 144.227 65.463L144.078 64.7974L145.09 64.0805C144.038 63.6509 144.336 62.5921 144.717 61.7171C145.551 59.802 148.425 56.5277 150.366 55.8148C151.254 55.4885 152.769 56.0885 154.274 55.3627C157.935 55.3544 160.801 55.8997 164.132 57.3761C164.557 57.5642 166.969 58.6107 167.308 58.6389C167.798 58.5514 173.104 56.4871 174.097 56.153L173.97 55.6632L174.274 55.1822C174.384 54.4551 174.811 53.847 175.186 53.2047L175.916 52.9901Z" fill="#F4ECE2"/>
<path d="M203.289 55.8618L203.592 56.4492L205.674 57.0365C206.332 57.2874 207.059 57.9754 207.503 57.9874L207.607 57.6118L207.773 57.6184C207.806 60.2228 210.779 67.1049 210.831 69.3427L210.863 69.5028C212.592 73.0409 213.269 76.7065 208.172 77.0287L207.908 76.7297C207.191 76.6282 206.593 75.9918 205.456 76.4823L204.096 76.7159C203.965 75.5893 203.939 75.2665 203.417 74.2733L203.522 73.8903C203.178 73.3371 203.075 73.0873 202.484 72.7762L202.211 73.7779L201.777 74.0128C201.461 73.2347 201.374 72.7226 200.664 72.2801L199.678 72.211C199.504 69.6803 200.682 68.5005 200.054 66.9761L200.449 66.9179C201.137 67.6601 202.061 67.9348 203.007 68.3227C203.057 66.2338 203.396 61.5823 203.874 59.6545C203.523 59.1813 202.899 57.8247 202.513 57.1553C202.72 56.5953 202.944 56.3398 203.289 55.8618Z" fill="#F8C554"/>
<path d="M203.874 59.6545C204.125 60.054 204.193 60.1938 204.377 60.6286C203.885 61.6064 203.824 62.5053 203.847 63.6039C204.551 65.2119 204.45 70.9727 205.291 71.8702C205.535 72.5308 205.585 73.1026 206.227 73.3275C208.512 74.1268 209.507 73.861 211.896 74.7308C211.727 72.8544 210.922 71.2651 210.863 69.5029C212.592 73.0409 213.269 76.7065 208.172 77.0288L207.908 76.7297C207.191 76.6282 206.593 75.9919 205.456 76.4823L204.096 76.7159C203.965 75.5894 203.939 75.2665 203.417 74.2734L203.522 73.8904C203.178 73.3371 203.075 73.0873 202.484 72.7763L202.211 73.7779L201.777 74.0129C201.461 73.2348 201.374 72.7227 200.664 72.2801L199.678 72.211C199.504 69.6803 200.682 68.5006 200.054 66.9761L200.449 66.9179C201.137 67.6601 202.061 67.9349 203.007 68.3227C203.057 66.2339 203.396 61.5824 203.874 59.6545Z" fill="#272A36"/>
<path d="M203.847 63.6038C204.551 65.2118 204.45 70.9726 205.291 71.8701C205.535 72.5307 205.585 73.1025 206.227 73.3274C208.512 74.1267 209.507 73.8609 211.896 74.7307L211.689 75.1664C211.083 75.357 209.771 75.7188 209.181 75.6267C208.025 75.4462 204.763 74.6894 204.013 73.8557C202.869 71.2263 203.513 66.4639 203.847 63.6038Z" fill="#BD8138"/>
<path d="M204.377 60.6285C204.658 59.8902 204.89 59.6135 205.349 58.9783C205.776 60.7952 205.836 70.4751 205.291 71.8701C204.45 70.9726 204.551 65.2118 203.847 63.6037C203.824 62.5052 203.885 61.6063 204.377 60.6285Z" fill="#C7933D"/>
<path d="M203.289 55.8618L203.591 56.4492L205.674 57.0365C206.332 57.2874 207.058 57.9754 207.503 57.9874L207.607 57.6118L207.773 57.6184C207.806 60.2228 210.779 67.1049 210.831 69.3427C209.152 66.5642 208.745 58.8817 205.372 57.6403C204.471 57.7453 204.788 57.635 204.072 58.2379L204.13 58.4954C204.673 58.5076 205.032 58.4726 205.536 58.6802L205.349 58.9783C204.89 59.6136 204.658 59.8903 204.377 60.6286C204.193 60.1937 204.125 60.0539 203.874 59.6545C203.523 59.1813 202.898 57.8247 202.513 57.1553C202.72 56.5953 202.944 56.3398 203.289 55.8618Z" fill="#644123"/>
<path d="M199.678 72.2109L200.664 72.2801C201.374 72.7226 201.461 73.2347 201.777 74.0128L202.211 73.7778L202.484 72.7762C203.075 73.0873 203.178 73.3371 203.522 73.8903L203.417 74.2733C203.939 75.2664 203.965 75.5893 204.096 76.7159L205.456 76.4823C206.593 75.9918 207.191 76.6282 207.907 76.7297L208.172 77.0287C208.212 78.3666 208.368 81.8749 208.086 83.0721C207.791 85.9546 205.94 89.5171 203.543 91.2113L202.835 90.8327C202.926 90.3484 203.088 90.1137 203.32 89.681C201.571 89.686 200.742 89.6856 199.036 89.9172L199.08 87.3924C199.179 85.5987 199.246 83.5621 199.476 81.8025C199.581 78.2815 199.752 75.7768 199.678 72.2109Z" fill="#191C34"/>
<path d="M205.456 76.4821C206.593 75.9917 207.191 76.628 207.907 76.7295L208.172 77.0286C208.212 78.3664 208.368 81.8748 208.086 83.072C207.791 85.9544 205.94 89.517 203.543 91.2112L202.835 90.8326C202.926 90.3483 203.088 90.1135 203.32 89.6808C202.946 88.0118 202.945 84.1082 203.016 82.3361C203.198 81.6475 203.387 80.9606 203.583 80.2757L203.586 80.9147C203.859 80.2429 204.015 77.605 204.096 76.7158L205.456 76.4821Z" fill="#7B85A1"/>
<path d="M205.456 76.4821C206.593 75.9917 207.191 76.628 207.907 76.7295C207.706 77.3414 207.899 81.299 207.242 83.9303C205.201 81.3931 205.584 80.1156 205.763 76.7858L205.456 76.4821Z" fill="#2F4A82"/>
<path d="M207.505 84.1618C207.551 83.9391 207.949 83.3094 208.086 83.072C207.791 85.9545 205.94 89.5171 203.542 91.2113C204.348 89.0922 204.279 88.7145 204.857 86.6842L205.219 86.5558C205.399 85.9969 205.638 85.4588 205.932 84.9509C206.24 84.4228 206.552 84.0105 207.149 83.8606L207.505 84.1618Z" fill="#434354"/>
<path d="M205.219 86.5558C205.399 85.9969 205.638 85.4588 205.932 84.9508C206.24 84.4228 206.552 84.0104 207.149 83.8606L207.505 84.1618C207.19 85.0217 206.892 86.1568 206.213 86.717C205.718 86.8128 205.695 86.7818 205.219 86.5558Z" fill="#E0EFF6"/>
<path d="M199.476 81.8025C199.534 82.9059 199.354 83.0281 199.906 83.7647C201.069 84.0071 201.215 83.7638 202.004 84.4146C202.467 85.2874 202.284 86.8049 202.253 87.8466C201.349 87.4147 200.446 86.8701 199.46 86.9193L199.08 87.3924C199.179 85.5987 199.246 83.5621 199.476 81.8025Z" fill="#434354"/>
<path d="M200.664 72.28C201.374 72.7226 201.461 73.2347 201.777 74.0127C202.162 74.9851 202.62 77.8693 201.709 78.6645C200.222 78.1296 200.469 73.6059 200.664 72.28Z" fill="#8E8F9C"/>
<path d="M203.417 74.2732C203.939 75.2663 203.965 75.5892 204.096 76.7158C204.015 77.605 203.859 80.2429 203.586 80.9147L203.583 80.2757C203.387 80.9606 203.198 81.6475 203.016 82.3361C203.002 80.6721 202.646 75.3825 203.417 74.2732Z" fill="#BCBDC5"/>
<path d="M177.723 62.1562C179.965 60.1041 182.195 62.6871 184.536 62.1988C187.618 61.7511 193.605 67.3714 194.758 70.2819C196.509 74.0275 197.047 76.525 196.646 80.7208L196.666 81.3329C195.752 82.3103 195.326 84.8016 194.756 86.1395C193.039 90.1752 189.501 92.81 185.578 94.5222C184.854 94.8449 182.73 95.5018 182.325 95.7247C180.502 95.5908 180.469 95.7997 178.764 96.3079C178.017 96.3422 177.362 96.3943 176.617 96.4693L175.455 96.1913C173.412 96.907 172.992 96.8119 170.794 97.0785L168.368 97.101C169.349 96.1952 170.895 96.809 172.459 95.6133C178.67 94.7589 184.126 94.5832 189.274 90.7387C194.576 87.0578 195.016 81.0317 194.557 75.2092C192.346 66.2448 186.088 63.7121 177.723 62.1562Z" fill="#F7F2EE"/>
<path d="M196.646 80.721C195.687 80.4318 196.315 76.9749 196.256 76.0419C196.159 74.5078 194.465 71.5674 194.758 70.282C196.509 74.0276 197.047 76.5251 196.646 80.721Z" fill="#A2A1AA"/>
<path d="M175.916 52.9901C177.485 52.711 182.85 52.6539 184.495 52.8173C185.383 53.047 188.632 53.8321 189.28 54.1462L191.459 55.0711C191.653 54.8351 191.771 54.4584 191.887 54.1642C192.403 54.4654 194.724 55.9284 195.076 56.0837C196.007 56.7327 196.55 57.3017 197.016 58.3679L197.372 58.4611C198.163 61.0939 199.19 64.5388 200.449 66.9177L200.054 66.9759C199.348 65.9027 198.83 64.5093 198.102 63.4531C192.895 55.9065 182.397 53.9717 174.097 56.153L173.97 55.6632L174.274 55.1822C174.384 54.4551 174.811 53.847 175.186 53.2047L175.916 52.9901Z" fill="#403D44"/>
<path d="M175.916 52.9901C177.485 52.711 182.85 52.6539 184.495 52.8173C185.382 53.047 188.632 53.8321 189.28 54.1462C189.513 54.7161 189.712 54.9818 189.475 55.6685C188.747 55.2754 187.632 55.2008 186.811 55.0026C183.062 54.097 177.978 54.0775 174.274 55.1822C174.384 54.4551 174.811 53.847 175.186 53.2047L175.916 52.9901Z" fill="#75737F"/>
<path d="M191.887 54.1643C192.403 54.4655 194.724 55.9285 195.076 56.0838C196.007 56.7329 196.55 57.3018 197.016 58.368C196.916 58.3938 196.551 58.5152 196.525 58.4932C195.658 57.7463 192.708 55.7745 191.949 55.3773L191.459 55.0712C191.653 54.8352 191.771 54.4585 191.887 54.1643Z" fill="#FAB863"/>
<path d="M189.28 54.1462L191.459 55.0711L191.949 55.3771C190.803 56.0039 190.669 56.3001 189.475 55.6685C189.712 54.9819 189.513 54.7161 189.28 54.1462Z" fill="#4C4B69"/>
<path d="M178.764 96.3079L179.287 96.4146L179.35 96.6561L178.728 97.2721C179.82 98.3812 187.78 97.9106 189.668 98.027C190.335 98.0681 190.923 98.822 191.545 98.6892C192.983 98.1565 193.349 97.0903 194.865 96.9729C192.943 98.6951 190.923 99.7289 188.519 100.675L187.555 101.121L187.474 101.385L186.064 101.565C184.791 101.908 183.509 102.219 182.219 102.497C180.941 102.773 177.044 103.294 175.718 103.242C174.633 102.519 174.1 102.906 172.529 102.652C173.637 101.683 174.739 100.667 175.769 99.6138C176.243 99.1291 176.125 98.7944 176.744 98.4908C176.777 98.249 176.643 96.802 176.617 96.4693C177.362 96.3943 178.017 96.3422 178.764 96.3079Z" fill="#CBBFBC"/>
<path d="M172.529 102.652C173.637 101.683 174.739 100.667 175.769 99.614C176.243 99.1293 176.125 98.7946 176.744 98.491L176.701 98.6493C176.426 99.6497 175.868 100.262 175.929 101.072L176.268 101.433L176.647 101.445C178.223 101.602 180.949 101.642 182.219 102.497C180.941 102.773 177.044 103.294 175.718 103.242C174.633 102.519 174.1 102.906 172.529 102.652Z" fill="#918F8F"/>
<path d="M176.647 101.445C177.958 100.427 182.795 101.204 184.902 101.256L186.064 101.565C184.791 101.908 183.509 102.219 182.219 102.497C180.949 101.642 178.223 101.602 176.647 101.445Z" fill="#B2ACAE"/>
<path d="M184.902 101.256L185.019 101.01L184.86 100.759L183.867 100.72L183.969 100.587C185.516 100.502 187.116 100.22 188.519 100.675L187.555 101.122L187.474 101.385L186.064 101.565L184.902 101.256Z" fill="#C1B1AD"/>
<path d="M165.259 59.8312C165.953 59.5072 168.287 59.6894 169.083 59.7708C169.903 60.2032 171.174 60.2162 172.132 60.2956L170.522 60.8311L170.434 61.0708C170.884 61.2255 171.338 61.3666 171.796 61.4939C164.352 61.4164 155.97 61.4744 149.034 64.4632C149.199 63.9412 149.598 63.3244 149.881 62.8366C152.939 61.283 164.543 60.371 165.259 59.8312Z" fill="#D6D0C9"/>
<path d="M145.09 64.0807C146.489 63.2542 147.902 62.5643 149.497 62.22C149.647 62.5223 149.648 62.5951 149.881 62.8366C149.598 63.3244 149.199 63.9413 149.034 64.4633C147.828 65.0992 146.507 65.7644 145.331 66.4338L145.199 66.2384L145.335 65.9166C144.695 65.7136 144.014 66.0761 143.276 66.3104C143.675 65.9938 143.886 65.8383 144.227 65.4632L144.078 64.7975L145.09 64.0807Z" fill="#A2A1AA"/>
<path d="M182.325 95.7248C182.73 95.5019 184.854 94.845 185.578 94.5223C189.501 92.8102 193.039 90.1753 194.756 86.1396C195.326 84.8017 195.752 82.3104 196.666 81.333C196.656 82.3885 196.413 82.7474 196.146 83.7522C194.471 90.0401 189.003 94.4648 182.798 95.877C182.61 95.9197 182.46 95.8482 182.325 95.7248Z" fill="#B2ACAE"/>
<path d="M149.497 62.22C152.774 60.9915 161.775 59.71 165.259 59.8312C164.543 60.3711 152.939 61.2831 149.881 62.8366C149.648 62.5951 149.647 62.5223 149.497 62.22Z" fill="#918F8F"/>
<path d="M172.132 60.2957C173.624 60.4661 175.074 60.5916 176.531 60.9574L176.387 61.5856C176.085 61.7729 176.042 61.8451 175.689 61.8322C174.336 61.7471 173.143 61.6681 171.796 61.494C171.338 61.3667 170.884 61.2256 170.434 61.0709L170.521 60.8312L172.132 60.2957Z" fill="#F4E7DC"/>
<path d="M177.708 60.8337C179.376 60.6839 183.239 61.3469 184.536 62.199C182.195 62.6872 179.965 60.1042 177.723 62.1563C177.266 62.1338 176.191 61.9187 175.689 61.8321C176.042 61.845 176.085 61.7728 176.387 61.5856L176.531 60.9573L177.708 60.8337Z" fill="#DED6D3"/>
<path d="M169.083 59.7708C171.867 59.7119 175.06 59.909 177.708 60.8337L176.531 60.9573C175.074 60.5915 173.624 60.4659 172.132 60.2955C171.174 60.2161 169.903 60.2032 169.083 59.7708Z" fill="#898082"/>
<path d="M153.897 55.1086L154.274 55.3628C152.769 56.0886 151.254 55.4886 150.366 55.815C148.425 56.5279 145.551 59.8021 144.717 61.7173C144.336 62.5923 144.038 63.651 145.09 64.0807L144.078 64.7975L144.227 65.4632C143.886 65.8383 143.675 65.9939 143.276 66.3104C144.014 66.0761 144.695 65.7136 145.335 65.9166L145.199 66.2384L145.331 66.4338C140.087 70.7908 138.786 75.0079 140.102 81.6892C142.867 96.4482 160.895 95.7504 172.459 95.6135C170.895 96.8092 169.349 96.1954 168.368 97.1012L170.794 97.0787C172.992 96.812 173.412 96.9072 175.455 96.1914L176.617 96.4694C176.643 96.8022 176.777 98.2492 176.744 98.4909C176.125 98.7945 176.243 99.1292 175.769 99.614C174.739 100.667 173.636 101.683 172.529 102.652C174.1 102.906 174.633 102.519 175.718 103.242C173.99 103.567 172.548 103.688 170.78 103.611C163.063 103.722 150.149 103.516 143.103 100.531L142.728 100.622C142.589 100.587 142.416 100.548 142.288 100.484C138.156 98.41 135.09 96.6757 133.387 92.283C130.257 91.2835 128.79 91.8505 126.916 88.643C125.633 87.1778 124.927 85.6225 124.559 83.7264C123.972 81.4555 123.746 78.974 124.221 76.663C124.793 75.5187 124.876 74.2849 125.417 73.0803C125.822 72.449 126.101 71.8187 126.797 71.6188C127.416 71.9045 127.487 72.1086 127.765 72.8541C127.856 73.1013 127.943 73.3498 128.026 73.5996C129.232 72.6716 127.979 70.2236 127.629 68.8864C128.683 68.0604 129.174 67.8688 130.367 67.3322C130.945 67.4114 131.453 67.6717 131.983 67.4345L132.227 66.6363C134.338 63.0256 135.246 61.9286 138.414 59.2638L139.041 58.7871C141.286 57.0735 146.94 55.3744 149.718 55.5547C150.587 55.2718 152.883 55.178 153.897 55.1086Z" fill="#B6BAC5"/>
<path d="M143.166 100.412L143.533 100.314L143.499 99.9013C142.308 98.4645 139.116 93.2524 141.019 91.7141C142.145 92.443 142.807 92.9069 144.015 93.4831C145.085 93.9937 148.654 95.1509 149.295 95.7859C150.269 96.4129 153.289 97.7849 154.344 97.0932L154.485 96.748C155.932 96.4 155.96 97.8238 158.928 96.6778C162.192 97.3016 165.065 97.1465 168.368 97.101L170.794 97.0785C172.992 96.8119 173.412 96.907 175.455 96.1913L176.617 96.4693C176.643 96.802 176.777 98.249 176.744 98.4908C176.125 98.7944 176.243 99.1291 175.769 99.6138C174.739 100.667 173.637 101.683 172.529 102.652C174.1 102.906 174.633 102.519 175.718 103.242C173.99 103.567 172.548 103.688 170.78 103.611C163.063 103.722 150.149 103.516 143.103 100.53L143.166 100.412Z" fill="#8D94A8"/>
<path d="M170.794 97.0787C172.992 96.812 173.412 96.9072 175.455 96.1914L176.617 96.4694C176.643 96.8022 176.777 98.2492 176.744 98.4909C176.125 98.7945 176.243 99.1292 175.769 99.614C174.739 100.667 173.637 101.683 172.529 102.652C174.1 102.906 174.633 102.519 175.718 103.242C173.99 103.567 172.548 103.688 170.78 103.611C170.197 103.054 165.092 103.564 163.929 103.189C163.027 102.898 162.901 102.83 162.019 102.338C160.799 101.68 159.575 100.449 158.476 99.6041C157.684 98.9951 157.977 99.6258 157.153 99.6772L156.976 99.2557L157.532 98.837L157.508 98.5102C156.636 97.8817 155.58 97.7104 154.344 97.0933L154.485 96.7481C155.932 96.4001 155.96 97.8239 158.928 96.6779C162.192 97.3018 165.065 97.1467 168.368 97.1012L170.794 97.0787Z" fill="#A8A6A9"/>
<path d="M162.019 102.338C164.547 102.342 170.543 102.843 172.529 102.652C174.1 102.906 174.633 102.519 175.718 103.242C173.99 103.567 172.548 103.688 170.78 103.611C170.197 103.054 165.092 103.564 163.929 103.189C163.027 102.899 162.901 102.83 162.019 102.338Z" fill="#8E8F9C"/>
<path d="M170.794 97.0787C172.992 96.812 173.412 96.9072 175.455 96.1914C175.781 96.8693 176.068 97.2731 175.882 97.9924C174.961 98.8403 173.291 97.7318 172.371 97.1189L170.794 97.0787Z" fill="#DED6D3"/>
<path d="M132.227 66.6362C132.482 67.642 133.078 69.0683 133.196 69.8578C133.38 70.7627 133.509 71.5069 133.629 72.4217L134.167 72.4659L134.557 71.4798C134.592 72.8118 134.596 73.9934 134.374 75.3156C133.933 77.9441 134.598 81.2824 134.242 83.8346C134.101 85.5292 134.175 88.5213 133.904 89.9602C133.831 92.4032 133.938 93.3655 135.736 95.3924C136.569 96.3322 138.89 98.0385 140.005 98.6446C140.399 98.5748 140.818 98.4729 141.211 98.386C141.806 98.6225 141.902 98.6496 142.255 99.1751C142.253 99.5203 142.283 99.5599 142.176 99.8875L143.166 100.412L143.103 100.53L142.728 100.622C142.589 100.587 142.416 100.548 142.288 100.484C138.156 98.4099 135.09 96.6756 133.387 92.2829C130.257 91.2835 128.79 91.8505 126.916 88.6429C125.633 87.1777 124.927 85.6224 124.559 83.7263C123.972 81.4555 123.746 78.974 124.221 76.6629C124.793 75.5186 124.876 74.2848 125.417 73.0802C125.822 72.4489 126.101 71.8186 126.797 71.6187C127.416 71.9044 127.487 72.1085 127.765 72.854C127.856 73.1012 127.943 73.3497 128.026 73.5995C129.232 72.6715 127.979 70.2235 127.629 68.8863C128.683 68.0603 129.174 67.8687 130.367 67.3321C130.945 67.4113 131.453 67.6716 131.983 67.4345L132.227 66.6362Z" fill="#191C34"/>
<path d="M127.629 68.8864C127.85 68.8929 128.273 68.8542 128.363 68.9778C129.659 70.7475 130.257 75.4206 130.33 77.4471C130.2 79.5585 130.081 81.6673 129.937 83.7784C129.83 85.3578 129.455 87.369 129.526 88.8954C129.492 89.8216 129.629 89.8347 129.211 90.5345L127.53 88.9597L126.916 88.643C125.633 87.1778 124.927 85.6225 124.559 83.7264C123.972 81.4555 123.746 78.974 124.221 76.6629C124.793 75.5186 124.876 74.2849 125.417 73.0802C125.822 72.4489 126.101 71.8187 126.797 71.6188C127.416 71.9044 127.487 72.1085 127.765 72.854C127.856 73.1012 127.943 73.3497 128.026 73.5995C129.232 72.6716 127.979 70.2236 127.629 68.8864Z" fill="#8E9DBD"/>
<path d="M125.417 73.0803C125.675 73.291 125.977 73.5563 126.254 73.7241C127.584 74.2379 127.455 75.2103 127.447 76.497C127.431 79.0443 127.315 81.5265 127.512 84.0716C127.11 84.4413 127.055 84.4803 126.53 84.6273C125.88 84.2536 126.03 84.2313 125.645 83.4171C125.426 83.7219 125.083 84.155 124.945 84.4877L124.559 83.7264C123.972 81.4556 123.746 78.9741 124.221 76.663C124.793 75.5187 124.876 74.285 125.417 73.0803Z" fill="#2F4A82"/>
<path d="M125.417 73.0803C125.675 73.291 125.977 73.5563 126.254 73.7241C125.048 76.6278 124.842 80.119 125.608 83.1459C125.65 83.3113 125.641 83.2688 125.645 83.4171C125.426 83.7219 125.083 84.155 124.945 84.4877L124.559 83.7264C123.972 81.4556 123.746 78.9741 124.221 76.663C124.793 75.5187 124.876 74.285 125.417 73.0803Z" fill="#7B85A1"/>
<path d="M125.417 73.0801C125.822 72.4488 126.101 71.8186 126.797 71.6187C127.416 71.9043 127.487 72.1084 127.765 72.8539C127.856 73.1011 127.943 73.3496 128.026 73.5994C128.113 74.446 128.319 77.8808 128.515 78.4898C128.571 80.0464 128.541 81.5234 128.275 83.0654C128.125 84.0023 128.061 84.8167 127.987 85.7565C127.938 85.0326 127.979 84.6424 127.512 84.0714C127.315 81.5263 127.431 79.0441 127.447 76.4968C127.455 75.2101 127.584 74.2377 126.254 73.7239C125.977 73.5561 125.675 73.2908 125.417 73.0801Z" fill="#E0EFF6"/>
<path d="M125.645 83.417C126.03 84.2312 125.88 84.2535 126.53 84.6271C127.055 84.4801 127.11 84.4412 127.512 84.0715C127.979 84.6424 127.938 85.0327 127.987 85.7565L128.035 86.1172L128.524 86.3436C128.832 87.4033 128.215 88.1792 127.53 88.9597L126.916 88.6429C125.633 87.1777 124.927 85.6224 124.559 83.7263L124.945 84.4876C125.083 84.1548 125.426 83.7217 125.645 83.417Z" fill="#E0EFF6"/>
<path d="M124.559 83.7263L124.945 84.4876C125.573 85.6489 126.108 87.1139 127.28 87.4945C127.895 87.0095 127.744 86.9984 128.035 86.1173L128.524 86.3437C128.832 87.4033 128.215 88.1792 127.53 88.9597L126.916 88.6429C125.633 87.1778 124.927 85.6224 124.559 83.7263Z" fill="#1C3368"/>
<path d="M128.515 78.49L128.665 77.948L128.988 77.8804C129.674 79.0126 129.476 81.8782 129.208 83.163L128.913 83.5359C128.454 83.3714 128.614 83.4565 128.275 83.0656C128.541 81.5237 128.571 80.0467 128.515 78.49Z" fill="#2F4A82"/>
<path d="M132.227 66.6362C132.482 67.642 133.078 69.0683 133.196 69.8578C132.628 71.3413 133.221 72.3703 132.844 72.9456C132.778 72.4349 132.811 72.0138 132.543 71.6469C132.546 72.3235 132.609 72.8601 132.355 73.4796C131.185 74.7825 130.355 75.283 131.511 76.9015C131.185 77.0494 130.622 77.2821 130.33 77.4471C130.257 75.4206 129.659 70.7474 128.363 68.9777C128.273 68.8541 127.85 68.8929 127.629 68.8863C128.683 68.0603 129.174 67.8687 130.367 67.3321C130.945 67.4113 131.453 67.6716 131.983 67.4345L132.227 66.6362Z" fill="#1C3368"/>
<path d="M134.557 71.4797C134.592 72.8117 134.596 73.9934 134.374 75.3155C133.933 77.944 134.598 81.2824 134.242 83.8345C134.101 85.5292 134.175 88.5212 133.904 89.9602C133.591 84.4105 134.003 78.4388 133.629 72.4217L134.167 72.4659L134.557 71.4797Z" fill="#BCBDC5"/>
<path d="M129.526 88.8955C130.507 90.2798 132.485 89.7777 132.938 90.9658C131.943 91.2274 129.985 91.3179 129.211 90.5346C129.629 89.8348 129.492 89.8217 129.526 88.8955Z" fill="#2F4A82"/>
<path d="M132.355 73.4797C132.532 74.5608 132.911 76.0997 132.385 77.0373C131.809 77.1053 132.039 77.1409 131.511 76.9016C130.355 75.2831 131.185 74.7826 132.355 73.4797Z" fill="#8E8F9C"/>
<path d="M141.211 98.386C141.806 98.6225 141.902 98.6496 142.255 99.175C142.253 99.5202 142.284 99.5598 142.176 99.8875C141.546 99.586 140.634 99.0136 140.005 98.6445C140.399 98.5748 140.818 98.4728 141.211 98.386Z" fill="#E0EFF6"/>
<path d="M132.227 66.6362C134.338 63.0255 135.246 61.9285 138.414 59.2637L139.153 59.8392C139.224 60.7905 137.607 63.78 137.438 65.0964C137.285 66.2956 137.762 67.317 137.344 68.0804C136.292 68.0089 136.021 67.8575 135.204 68.349C134.74 69.0422 134.569 70.6492 134.557 71.4798L134.167 72.4659L133.629 72.4217C133.509 71.5069 133.38 70.7627 133.196 69.8577C133.078 69.0683 132.482 67.642 132.227 66.6362Z" fill="#E0EFF6"/>
<path d="M134.242 83.8347C134.743 84.9639 134.089 86.2517 134.878 87.2835C135.02 85.9658 134.641 83.5385 134.905 82.7769C135.66 89.5023 135.898 93.225 141.211 98.3862C140.818 98.473 140.399 98.575 140.005 98.6448C138.89 98.0386 136.569 96.3324 135.736 95.3926C133.938 93.3657 133.831 92.4034 133.904 89.9604C134.175 88.5215 134.101 85.5294 134.242 83.8347Z" fill="#E0EFF6"/>
<path d="M143.275 66.3105C144.014 66.0762 144.695 65.7137 145.335 65.9167L145.199 66.2385L145.331 66.4338C140.087 70.7909 138.786 75.008 140.102 81.6892C140.211 83.1133 139.885 81.9259 139.991 83.0153C139.675 82.1534 139.591 80.9667 139.088 80.4817L138.78 80.7202C138.615 82.1169 140.269 84.1933 139.684 85.2619C137.181 77.8766 137.48 72.0892 143.275 66.3105Z" fill="#C6C4C7"/>
<path d="M144.078 64.7974L144.227 65.463C143.886 65.8382 143.675 65.9937 143.276 66.3102C137.48 72.089 137.181 77.8764 139.684 85.2616C139.967 86.017 141.917 89.4914 141.896 89.7294C137.431 86.2751 136.446 76.2194 138.963 71.317C140.583 68.1611 141.491 67.2279 144.078 64.7974Z" fill="#7A6E70"/>
<path d="M139.041 58.7872C141.287 57.0735 146.94 55.3744 149.718 55.5547L149.537 55.6203C148.408 56.037 143.369 59.2327 142.321 58.7804C142.436 58.1935 142.698 57.9594 143.078 57.5112C142.534 57.4692 141.349 58.1528 140.782 58.4334L139.675 60.2283L139.545 60.15L139.834 59.3911C139.499 59.0735 139.443 59.0046 139.041 58.7872Z" fill="#BCBDC5"/>
<path d="M149.295 95.786C149.921 95.7418 150.095 95.8413 150.504 95.4942C149.999 95.0624 149.621 94.9123 149.033 94.631L149.27 94.5208L149.392 94.5829C151.556 95.6655 156.023 96.5763 158.552 96.6404C158.718 96.6446 158.754 96.6466 158.928 96.6778C155.96 97.8239 155.932 96.4 154.485 96.7481L154.344 97.0933C153.289 97.7849 150.269 96.4129 149.295 95.786Z" fill="#A2A1AA"/>
<path d="M194.557 75.2092C195.016 81.0317 194.576 87.0578 189.274 90.7387C189.851 88.8662 190.428 87.9549 191.405 86.2714C193.717 82.2915 193.445 80.1628 193.575 75.7447C193.874 76.0698 193.843 79.092 193.956 80.0397C194.432 78.7401 193.509 77.9679 194.557 75.2092Z" fill="#272A36"/>
<path d="M174.214 77.345C173.953 77.0438 174.004 75.7564 174.02 75.3084C174.183 70.5021 181.402 70.917 182.627 69.7559C182.018 68.2111 180.886 69.0154 179.323 68.2142C178.884 67.5929 179.214 67.6194 179.276 66.8463C179.303 66.5005 178.107 65.2921 177.799 64.9412L177.946 64.7043C178.651 64.6067 179.103 64.8187 179.778 65.0449C182.829 65.7648 186.02 66.8798 187.772 69.7089C187.719 71.8246 187.776 72.4006 185.643 73.2325C185.79 73.2806 185.937 73.3259 186.086 73.3683C187.353 73.7221 187.59 73.4547 188.769 72.7817C187.89 74.1351 186.456 73.7568 186.105 75.0109C186.036 75.2555 187.049 76.0765 186.601 76.5096C185.543 77.9737 186.229 78.1434 185.092 79.4292C184.187 79.8151 175.738 78.5665 174.681 78.2303L174.214 77.345Z" fill="#2F4A82"/>
<path d="M174.214 77.345C174.619 76.7408 174.624 76.2526 174.853 75.5944C175.437 73.9212 177.131 72.6795 178.806 72.267C180.165 71.9434 181.597 72.188 182.771 72.9438C184.086 73.7925 185.006 75.1328 185.324 76.6649C185.55 77.7335 185.386 78.4009 185.092 79.4293C184.187 79.8152 175.738 78.5665 174.681 78.2303L174.214 77.345Z" fill="#E0EFF6"/>
<path d="M174.681 78.2303L174.867 78.1205C176.784 76.9727 178.168 74.7826 180.708 75.249C182.73 75.6202 183.636 78.9133 185.092 79.4293C184.187 79.8152 175.738 78.5665 174.681 78.2303Z" fill="#2F4A82"/>
<path d="M179.778 65.0449C182.829 65.7648 186.02 66.8798 187.772 69.7089C187.719 71.8246 187.777 72.4006 185.643 73.2325L185.226 72.9842C183.038 71.7085 184.722 71.1408 183.562 69.7741C182.43 68.4393 180.663 67.0353 179.374 65.7416L179.778 65.0449Z" fill="#F3D0B3"/>
<path d="M172.319 82.1501C172.669 82.1674 173.019 82.1911 173.369 82.221C179.685 82.7526 174.165 91.3131 164.132 89.7126C161.253 88.8056 158.553 84.0461 161.642 82.7596C164.173 81.7056 169.133 84.0782 172.319 82.1501Z" fill="#191C34"/>
<path d="M170.811 87.3567C168.064 88.3323 164.986 88.5005 162.737 86.331C162.068 85.6856 161.156 84.4151 161.13 83.4636L161.429 83.2674C163.033 83.2326 163.945 84.4967 165.59 84.9069C169.013 85.7598 171.721 84.136 174.538 82.5566C174.116 83.9273 173.942 84.5783 173.071 85.7265C173.799 87.3654 171.407 89.0583 170.381 88.6396C170.441 88.0838 170.582 87.8576 170.811 87.3567Z" fill="#E0EFF6"/>
<path d="M173.072 85.7266C173.8 87.3654 171.407 89.0583 170.381 88.6397C170.441 88.0838 170.582 87.8576 170.811 87.3567C171.567 86.8485 172.334 86.2667 173.072 85.7266Z" fill="#1C3368"/>
<path d="M152.105 70.9292C155.981 69.6482 159.222 71.4238 161.524 74.5525C161.587 75.3842 161.757 76.3493 161.383 77.0671C161.097 77.332 160.773 77.6583 160.452 77.8672L160.069 78.2308C159.742 78.4944 159.558 78.6659 159.058 78.6674C157.696 78.6587 156.525 78.6381 155.155 78.7856C153.789 78.9326 152.432 79.2207 151.079 79.2764C150.744 79.2902 150.168 79.0045 149.85 78.9599L149.016 77.8804C147.975 73.898 148.495 73.09 152.105 70.9292Z" fill="#E0EFF6"/>
<path d="M152.105 70.9292C155.981 69.6482 159.222 71.4238 161.524 74.5525C161.587 75.3842 161.757 76.3493 161.383 77.0671C161.097 77.332 160.773 77.6583 160.452 77.8672C160.171 73.0086 156.373 71.2273 152.04 72.7183C150.056 74.5164 149.437 75.148 149.016 77.8804C147.975 73.898 148.495 73.09 152.105 70.9292Z" fill="#1C3368"/>
<path d="M149.85 78.96C151.635 77.5449 151.719 76.6594 154.233 75.436C157.232 73.9765 157.167 77.5314 160.069 78.2309C159.742 78.4945 159.558 78.666 159.058 78.6676C157.696 78.6588 156.525 78.6383 155.155 78.7857C153.789 78.9327 152.432 79.2208 151.079 79.2766C150.743 79.2903 150.168 79.0047 149.85 78.96Z" fill="#1C3368"/>
<path d="M142.482 81.7104C144.918 82.655 148.408 86.484 150.433 88.2708C153.624 91.085 158.665 93.0102 162.87 93.0651L163.005 93.3003C161.575 93.3972 159.946 92.9098 158.53 92.8973C152.118 92.8402 142.666 89.6863 142.482 81.7104Z" fill="#272A36"/>
<path d="M187.772 69.7087C189.316 70.3125 190.881 72.5354 190.481 74.2012C189.983 74.8047 189.584 75.0095 188.753 74.9417C188.975 73.3019 189.75 72.6444 189.607 71.861C189.483 72.0012 188.867 72.7152 188.769 72.7815C187.59 73.4546 187.353 73.7219 186.086 73.3682C185.937 73.3258 185.79 73.2805 185.643 73.2324C187.777 72.4005 187.719 71.8245 187.772 69.7087Z" fill="#5D5357"/>
<path d="M142.728 100.622L143.103 100.531C150.149 103.516 163.063 103.722 170.78 103.611C172.548 103.688 173.99 103.567 175.718 103.242C177.044 103.294 180.941 102.773 182.219 102.497C183.509 102.219 184.791 101.908 186.064 101.565L187.474 101.385C185.206 102.945 181.444 102.935 178.907 103.589C177.952 103.797 177.763 103.676 177.153 104.249C177.649 104.725 178.582 104.531 179.242 104.437C185.138 104.584 188.449 102.995 193.844 107.072C196.484 108.463 199.064 109.455 201.959 110.19C202.886 110.425 204.415 110.853 205.076 111.57C205.895 112.767 205.998 113.013 205.729 114.447C205.715 114.521 205.7 114.594 205.684 114.667C205.845 117.501 209.392 119.577 211.125 121.819C211.477 122.031 211.575 122.025 211.766 122.349C212.294 122.65 214.78 124.227 215.089 124.323L215.799 124.71L218.268 126.022C218.971 125.966 228.016 125.669 228.329 125.726L229.388 126.102C230.991 126.035 232.851 125.614 234.491 125.379L234.5 125.745L234.281 125.921L234.804 126.165L234.762 126.5C233.5 127.39 231.693 132.257 232.323 133.883C232.501 134.338 232.783 134.922 232.967 135.408C233.404 137.976 234.517 138.759 236.401 140.507C237.816 141.195 241.345 142.484 242.102 143.437L241.408 143.594C239.973 145.647 239.986 148.208 239.087 150.869C236.683 159.875 230.737 166.715 221.032 161.057L220.666 160.91C215.427 159.236 208.535 155.268 204.498 151.531C202.815 150.463 201.446 148.69 199.918 147.365C201.339 152.979 202.871 157.446 204.714 162.936L204.713 163.085C206.913 166.791 207.474 169.016 202.799 170.781C200.069 172.59 196.955 173.43 193.831 174.333C192.409 172.979 192.25 172.045 191.247 170.631C189.706 170.87 185.037 171.366 184.174 172.162C183.961 172.645 183.906 172.717 183.857 173.233L183.291 174.16L183.036 172.95C182.732 171.706 182.958 171.894 182.167 171.062C182.114 169.623 182.052 168.185 181.982 166.748C180.52 165.09 179.936 164.404 177.81 163.934C176.341 163.219 174.157 162.106 173.308 160.632C173.15 160.356 172.814 160.311 172.446 160.171L172.88 160.085C174.946 160.399 176.916 160.672 178.92 161.308L179.006 160.442C178.262 158.725 178.895 159.006 178.735 157.475L178.039 157.168L177.933 157.117C176.447 156.392 174.802 156.109 173.181 155.751C172.373 155.721 170.574 155.398 169.438 155.325L167.213 155.311C163.457 155.452 159.181 155.697 155.699 157.252L155.222 157.692L154.389 157.199C153.554 156.41 152.678 155.532 151.753 154.863C150.849 153.465 150.608 152.871 149.989 151.315C151.06 148.39 150.92 142.966 151.537 141.372C151.559 140.667 151.502 139.722 151.892 139.171C152.419 138.746 153.335 138.757 154.044 138.696C153.609 138.253 152.923 138.157 152.271 137.958C151.854 137.272 152.028 136.462 152.043 135.547C152.153 134.365 152.179 133.22 152.689 132.149C152.542 129.887 153.048 125.099 151.904 123.495C151.739 121.975 151.467 120.326 151.247 118.802C151.076 117.827 150.949 116.73 150.811 115.74C150.5 114.105 149.96 112.475 149.468 110.881C149.224 110.28 148.772 108.545 148.552 107.82L148.731 107.284C149.181 106.733 149.964 106.663 150.703 106.491L151.035 106.597C151.388 106.009 151.774 105.928 151.931 105.125C151.369 104.64 149.876 104.697 148.629 104.392C149.628 104.436 153.422 104.45 154.092 104.555L155.363 104.574C155.296 104.312 155.298 104.084 155.03 103.978C151.972 102.77 145.388 102.414 142.728 100.622Z" fill="#403C59"/>
<path d="M142.728 100.622L143.103 100.531C150.149 103.516 163.063 103.722 170.78 103.611C172.548 103.688 173.99 103.567 175.718 103.242C177.044 103.294 180.941 102.773 182.219 102.497C183.509 102.219 184.791 101.908 186.064 101.565L187.474 101.385C185.206 102.945 181.444 102.935 178.907 103.589C177.952 103.797 177.763 103.676 177.153 104.249C177.649 104.725 178.582 104.531 179.242 104.437C185.138 104.584 188.449 102.995 193.844 107.072C193.181 106.91 190.892 105.736 190.099 105.353C188.836 106.532 188.392 105.778 186.85 105.859C186.453 106.882 186.418 107.644 186.177 108.265C185.048 111.176 184.334 113.383 183.702 116.434C183.58 117.66 183.42 117.779 184.041 118.82C183.559 120.17 183.121 121.935 182.791 123.35L182.654 125.297C182.456 129.82 182.171 133.882 182.852 138.38C183.086 140.148 184.345 147.443 1
<truncated 186261 bytes>

NOTE: The output was truncated because it was too long. Use a more targeted query or a smaller range to get the information you need.
</svg>